<?xml version="1.0" encoding="UTF-8" standalone="no"?>
<!-- Created with Inkscape (http://www.inkscape.org/) -->

<svg
   width="100"
   height="100"
   viewBox="0 0 25.128608 25.128608"
   version="1.1"
   id="svg1"
   xml:space="preserve"
   inkscape:version="1.3.2 (091e20e, 2023-11-25, custom)"
   sodipodi:docname="logo-linkspot.svg"
   xmlns:inkscape="http://www.inkscape.org/namespaces/inkscape"
   xmlns:sodipodi="http://sodipodi.sourceforge.net/DTD/sodipodi-0.dtd"
   xmlns="http://www.w3.org/2000/svg"
   xmlns:svg="http://www.w3.org/2000/svg"><sodipodi:namedview
     id="namedview1"
     pagecolor="#ffffff"
     bordercolor="#000000"
     borderopacity="0.25"
     inkscape:showpageshadow="2"
     inkscape:pageopacity="0.0"
     inkscape:pagecheckerboard="0"
     inkscape:deskcolor="#d1d1d1"
     inkscape:document-units="mm"
     inkscape:zoom="2.2494835"
     inkscape:cx="96.022043"
     inkscape:cy="80.685189"
     inkscape:window-width="1366"
     inkscape:window-height="705"
     inkscape:window-x="-8"
     inkscape:window-y="-8"
     inkscape:window-maximized="1"
     inkscape:current-layer="layer1" /><defs
     id="defs1"><inkscape:path-effect
       effect="fillet_chamfer"
       id="path-effect2"
       is_visible="true"
       lpeversion="1"
       nodesatellites_param="F,0,0,1,0,0,0,1 @ F,0,0,1,0,0,0,1 @ F,0,0,1,0,0,0,1 @ F,0,0,1,0,0,0,1"
       radius="0"
       unit="px"
       method="auto"
       mode="F"
       chamfer_steps="1"
       flexible="false"
       use_knot_distance="true"
       apply_no_radius="true"
       apply_with_radius="true"
       only_selected="false"
       hide_knots="false" /></defs><g
     inkscape:label="Lapis 1"
     inkscape:groupmode="layer"
     id="layer1"><g
       id="g2"><path
         style="fill:#1d3557;fill-opacity:1;stroke-width:0.83547"
         d="m 2.173993,12.970768 c -0.4726017,-0.06598 -0.8423198,-0.438796 -0.9065388,-0.914126 -0.014721,-0.108983 -0.014704,-0.179621 8.61e-5,-0.282929 0.027729,-0.193705 0.096364,-0.356525 0.2143264,-0.50845 0.070396,-0.09067 0.8380155,-0.852782 0.9053474,-0.898857 0.079804,-0.05461 0.1435582,-0.08918 0.2251231,-0.122056 l 0.073404,-0.02959 0.029333,-0.07341 C 2.7474321,10.060374 2.7818701,9.9969876 2.8373668,9.916226 2.8838019,9.8486593 3.6463172,9.0806228 3.7362426,9.010845 3.8882858,8.8928678 4.0510347,8.8242756 4.2446941,8.7965525 4.5829194,8.7481339 4.9295653,8.8719943 5.1668119,9.1260362 5.3829629,9.357489 5.4866409,9.6842191 5.4422752,9.9941338 5.414546,10.187825 5.3448991,10.3533 5.2282662,10.502585 c -0.07129,0.09125 -0.8388468,0.85311 -0.905664,0.898944 -0.080998,0.05556 -0.1442859,0.08992 -0.2251239,0.122225 l -0.073404,0.02933 -0.029333,0.07341 c -0.032358,0.08098 -0.066796,0.144362 -0.1222914,0.225123 -0.046435,0.06756 -0.8089504,0.835603 -0.8988767,0.905381 -0.2300256,0.178487 -0.5121092,0.253901 -0.7995798,0.213765 z m 0.292069,-0.164144 c 0.1403985,-0.02448 0.2778386,-0.08178 0.3885989,-0.161983 0.066662,-0.04827 0.8130802,-0.794498 0.8711542,-0.870928 0.098268,-0.129328 0.1651926,-0.30373 0.1768324,-0.460815 0.015916,-0.214743 -0.030812,-0.402002 -0.1438849,-0.576589 -0.052141,-0.08051 -0.1632134,-0.194773 -0.2387354,-0.245598 -0.059301,-0.03991 -0.1734746,-0.09884 -0.1914964,-0.09884 -0.026977,0 -0.042743,0.172042 -0.022616,0.246783 0.016593,0.06161 0.053336,0.124081 0.1178308,0.200321 0.1094846,0.129421 0.1529573,0.240186 0.1532472,0.390461 1.913e-4,0.09927 -0.016501,0.172486 -0.059577,0.261345 -0.033494,0.06909 -0.037521,0.07343 -0.4487315,0.484525 -0.3747092,0.374599 -0.4205037,0.41766 -0.4723435,0.444141 -0.09924,0.05069 -0.1672453,0.06737 -0.2747281,0.06737 -0.1641274,0 -0.2848506,-0.05029 -0.4020733,-0.16752 -0.077231,-0.07723 -0.1162109,-0.141872 -0.1484966,-0.246258 -0.027011,-0.08733 -0.027011,-0.224303 0,-0.311631 0.044397,-0.143541 0.039685,-0.137839 0.4847744,-0.58636 l 0.4069072,-0.410041 -0.00976,-0.0533 c -0.00535,-0.02932 -0.010151,-0.10963 -0.010635,-0.178472 l -9.182e-4,-0.125165 -0.055626,0.02801 c -0.030595,0.01541 -0.085026,0.05008 -0.1209613,0.07705 -0.07561,0.05674 -0.8209846,0.80245 -0.870658,0.871044 -0.1410318,0.19475 -0.2018262,0.449028 -0.1619828,0.677508 0.067071,0.384605 0.3554133,0.675285 0.7384772,0.74446 0.087116,0.01574 0.2068005,0.01593 0.2953733,4.81e-4 z m -0.076078,-0.48729 c 0.026325,-0.0043 0.074307,-0.01972 0.1066105,-0.03425 0.05601,-0.02518 0.075793,-0.04339 0.425727,-0.391694 0.2018429,-0.200908 0.3669862,-0.367358 0.3669862,-0.369887 0,-0.0025 -0.024914,-0.01682 -0.055358,-0.03175 -0.1975502,-0.09688 -0.3696747,-0.265424 -0.4745199,-0.46466 -0.021263,-0.04041 -0.040052,-0.07515 -0.041748,-0.07721 -0.00167,-0.0021 -0.1654925,0.158473 -0.363991,0.356736 -0.345264,0.344853 -0.3623276,0.363326 -0.3937002,0.426205 -0.062059,0.124391 -0.062051,0.244021 3.26e-5,0.369313 0.078969,0.159357 0.2513568,0.246439 0.4299569,0.21719 z M 3.4031004,11.33222 c 0.012657,-0.05658 0.013067,-0.157533 8.145e-4,-0.20303 C 3.3873229,11.06758 3.3505789,11.00511 3.2860841,10.92887 3.1765995,10.799449 3.1331269,10.688684 3.132837,10.538408 c -1.922e-4,-0.09961 0.016576,-0.172796 0.05987,-0.261346 0.031873,-0.0652 0.046143,-0.0819 0.220528,-0.258139 0.1840166,-0.1859767 0.1868939,-0.1884329 0.2207202,-0.1884329 0.058942,0 0.098678,0.061708 0.072719,0.1129277 -0.00502,0.00985 -0.072167,0.081437 -0.1492795,0.1590792 -0.077114,0.07764 -0.1385303,0.142542 -0.1364869,0.144224 0.002,0.0017 0.036778,0.02046 0.077189,0.04172 0.1992354,0.104845 0.3677841,0.276969 0.4646614,0.474519 0.01493,0.03044 0.029216,0.05536 0.031748,0.05536 0.0025,0 0.1689788,-0.165145 0.3698877,-0.366988 C 4.7143433,10.099753 4.7308044,10.081845 4.7564566,10.0248 4.8643337,9.7849077 4.7367813,9.5183949 4.4828622,9.4531412 4.3838778,9.4277037 4.29103,9.441575 4.1815713,9.4981528 c -0.078601,0.04063 -0.09809,0.041163 -0.1355377,0.00371 -0.025448,-0.025447 -0.028339,-0.032483 -0.024112,-0.058582 0.00627,-0.038804 0.02828,-0.06106 0.09456,-0.09574 0.094429,-0.049408 0.1643337,-0.06652 0.2717389,-0.06652 0.1641273,0 0.2848505,0.050299 0.4020732,0.1675209 0.077231,0.077233 0.1162109,0.1418713 0.1484975,0.2462576 0.027011,0.087329 0.027011,0.2243023 0,0.3116317 -0.044397,0.143541 -0.039685,0.137839 -0.4847744,0.586359 l -0.4069073,0.410041 0.00976,0.05331 c 0.00535,0.02932 0.010151,0.10963 0.010635,0.178471 l 9.182e-4,0.125166 0.055626,-0.02801 c 0.030595,-0.01541 0.085027,-0.05008 0.1209621,-0.07705 0.075611,-0.05675 0.820986,-0.802451 0.8706594,-0.871045 C 5.2566997,10.188924 5.3174941,9.9346462 5.2776507,9.7061666 5.210028,9.3183983 4.9204771,9.0288461 4.5327087,8.961225 4.3042295,8.9213816 4.0499511,8.982176 3.8552005,9.1232079 3.7885387,9.1714845 3.0421212,9.9177057 2.9840471,9.9941355 2.8857796,10.123464 2.8188545,10.297865 2.8072139,10.454951 c -0.015941,0.21517 0.031364,0.404324 0.1442157,0.576589 0.053353,0.08145 0.1641617,0.195634 0.2381748,0.245441 0.060914,0.04099 0.1719641,0.09853 0.1906936,0.0988 0.00912,1.33e-4 0.015991,-0.01295 0.022842,-0.04356 z M 3.8332553,9.7484555 c -0.052325,-0.022761 -0.062752,-0.090846 -0.019792,-0.129231 0.035332,-0.031567 0.075651,-0.03114 0.1079322,0.00114 0.04306,0.04306 0.027503,0.1102358 -0.030653,0.1323465 -0.025181,0.00957 -0.025799,0.00953 -0.057489,-0.00425 z m 0.1244168,3.0224165 c -0.00902,-0.0038 -0.023786,-0.01523 -0.0328,-0.02526 -0.015724,-0.01747 -0.016401,-0.02977 -0.016401,-0.296011 v -0.27778 l 0.022549,-0.02256 c 0.017085,-0.01709 0.030503,-0.02255 0.055358,-0.02255 0.024847,0 0.038273,0.0054 0.055358,0.02255 l 0.022549,0.02256 v 0.278454 0.278456 l -0.020502,0.02049 c -0.022774,0.02276 -0.061039,0.03238 -0.086109,0.02164 z M 4.724449,12.354074 c -0.031422,-0.0054 -0.3984991,-0.376132 -0.4041819,-0.408142 -0.00652,-0.03673 0.013492,-0.07655 0.045098,-0.08976 0.052776,-0.02205 0.064022,-0.01429 0.2583312,0.178373 0.1001991,0.09935 0.1880852,0.193082 0.195302,0.20829 0.028824,0.06075 -0.024446,0.123421 -0.094554,0.111239 z M 4.646542,11.589809 C 4.594234,11.567869 4.580457,11.499839 4.620267,11.460032 l 0.022549,-0.02255 h 0.2784551 0.2784551 l 0.022549,0.02255 c 0.031472,0.03147 0.031472,0.07923 1.01e-5,0.110711 l -0.022541,0.02255 -0.2684003,0.0017 c -0.1476211,9.18e-4 -0.2757816,-0.0014 -0.284803,-0.0052 z M 1.5384286,10.31868 c -0.052309,-0.02194 -0.066085,-0.08997 -0.026276,-0.129777 l 0.022549,-0.02255 h 0.2784553 0.2784552 l 0.022549,0.02255 c 0.031472,0.03147 0.031472,0.07923 1e-5,0.110711 l -0.022541,0.02255 -0.2684004,0.0017 c -0.1476202,9.35e-4 -0.2757816,-0.0014 -0.2848021,-0.0052 z M 2.2888045,9.918389 C 2.2689454,9.9147046 1.9386086,9.5957528 1.9018498,9.5447712 1.881966,9.5171963 1.8804534,9.4722325 1.8985109,9.4447141 c 0.01437,-0.02193 0.054564,-0.035946 0.086885,-0.030296 0.031481,0.00551 0.39851,0.3755452 0.4041828,0.407497 0.00669,0.037664 -0.013451,0.076535 -0.046886,0.090506 -0.015807,0.0066 -0.029776,0.011503 -0.031046,0.01089 -0.00125,-6.142e-4 -0.011538,-0.00283 -0.022816,-0.00492 z M 2.6865442,9.6381564 c -0.00902,-0.00386 -0.023786,-0.015227 -0.032801,-0.025254 -0.015724,-0.017473 -0.0164,-0.029774 -0.0164,-0.2960111 v -0.277781 l 0.022549,-0.022553 c 0.031472,-0.031475 0.079236,-0.031475 0.110711,0 l 0.022549,0.022553 V 9.3175658 9.596021 l -0.020502,0.02049 c -0.022774,0.022763 -0.061039,0.032381 -0.086109,0.021645 z"
         id="path1" /><text
         xml:space="preserve"
         style="font-size:3.93164px;line-height:0;font-family:Poppins;-inkscape-font-specification:Poppins;fill:#1d3557;fill-opacity:1;stroke-width:0.0730561"
         x="5.8652592"
         y="11.935473"
         id="text1"><tspan
           sodipodi:role="line"
           id="tspan1"
           style="font-style:normal;font-variant:normal;font-weight:bold;font-stretch:normal;font-size:3.93164px;line-height:0;font-family:Poppins;-inkscape-font-specification:'Poppins Bold';stroke-width:0.0730561"
           x="5.8652592"
           y="11.935473">Link Spot</tspan></text><text
         xml:space="preserve"
         style="font-style:normal;font-variant:normal;font-weight:normal;font-stretch:normal;font-size:2.5179px;line-height:0;font-family:Poppins;-inkscape-font-specification:Poppins;fill:#1d3557;fill-opacity:1;stroke-width:0.0467865"
         x="7.2238402"
         y="15.692763"
         id="text2"><tspan
           sodipodi:role="line"
           id="tspan2"
           style="font-style:normal;font-variant:normal;font-weight:normal;font-stretch:normal;font-size:2.5179px;line-height:0;font-family:Poppins;-inkscape-font-specification:Poppins;stroke-width:0.0467865"
           x="7.2238402"
           y="15.692763">by kryon</tspan></text></g></g></svg>
