<?xml version="1.0" encoding="UTF-8" standalone="no"?>
<!-- Created with Inkscape (http://www.inkscape.org/) -->

<svg
   width="100"
   height="100"
   viewBox="0 0 25.128608 25.128608"
   version="1.1"
   id="svg1"
   xml:space="preserve"
   inkscape:version="1.3.2 (091e20e, 2023-11-25, custom)"
   sodipodi:docname="linkspot - Salin.svg"
   xmlns:inkscape="http://www.inkscape.org/namespaces/inkscape"
   xmlns:sodipodi="http://sodipodi.sourceforge.net/DTD/sodipodi-0.dtd"
   xmlns="http://www.w3.org/2000/svg"
   xmlns:svg="http://www.w3.org/2000/svg"><sodipodi:namedview
     id="namedview1"
     pagecolor="#ffffff"
     bordercolor="#000000"
     borderopacity="0.25"
     inkscape:showpageshadow="2"
     inkscape:pageopacity="0.0"
     inkscape:pagecheckerboard="0"
     inkscape:deskcolor="#d1d1d1"
     inkscape:document-units="mm"
     inkscape:zoom="2.2494835"
     inkscape:cx="96.022042"
     inkscape:cy="80.685188"
     inkscape:window-width="1366"
     inkscape:window-height="705"
     inkscape:window-x="-8"
     inkscape:window-y="-8"
     inkscape:window-maximized="1"
     inkscape:current-layer="layer1" /><defs
     id="defs1"><inkscape:path-effect
       effect="fillet_chamfer"
       id="path-effect2"
       is_visible="true"
       lpeversion="1"
       nodesatellites_param="F,0,0,1,0,0,0,1 @ F,0,0,1,0,0,0,1 @ F,0,0,1,0,0,0,1 @ F,0,0,1,0,0,0,1"
       radius="0"
       unit="px"
       method="auto"
       mode="F"
       chamfer_steps="1"
       flexible="false"
       use_knot_distance="true"
       apply_no_radius="true"
       apply_with_radius="true"
       only_selected="false"
       hide_knots="false" /></defs><g
     inkscape:label="Lapis 1"
     inkscape:groupmode="layer"
     id="layer1"><g
       id="g1"
       transform="translate(0.50439521,-1.2993656)"><path
         style="fill:#1d3557;fill-opacity:1;stroke-width:3.50315"
         d="m 7.1104204,21.315218 c -1.9816352,-0.276656 -3.531876,-1.839886 -3.8011485,-3.832962 -0.061726,-0.456969 -0.061654,-0.753157 3.61e-4,-1.186331 0.1162687,-0.812211 0.4040576,-1.494921 0.898678,-2.131948 0.2951729,-0.380182 3.513828,-3.575744 3.796153,-3.768939 0.3346209,-0.228981 0.6019445,-0.373934 0.9439489,-0.5117853 L 9.2561984,9.7591817 9.3791926,9.4513707 C 9.5148707,9.1118357 9.6592707,8.8460537 9.8919697,8.5074177 10.086674,8.2241087 13.283927,5.0037047 13.660987,4.711124 14.29851,4.2164415 14.980921,3.928832 15.792942,3.8125881 c 1.41819,-0.2030209 2.871689,0.3163301 3.866472,1.3815366 0.906328,0.97049 1.341054,2.34048 1.155027,3.639963 -0.116269,0.812154 -0.408301,1.5059973 -0.897347,2.1319543 -0.298922,0.382614 -3.517314,3.577119 -3.797481,3.769303 -0.339627,0.232965 -0.604995,0.377038 -0.943952,0.512494 l -0.307785,0.122981 -0.122995,0.307811 c -0.135678,0.339552 -0.280078,0.605315 -0.512772,0.943949 -0.194703,0.283281 -3.391957,3.503712 -3.769021,3.796293 -0.9645053,0.748403 -2.1472917,1.064616 -3.3526659,0.896324 z m 1.2246555,-0.688261 c 0.5886957,-0.102646 1.1649868,-0.342906 1.6294088,-0.6792 0.2795163,-0.202398 3.4092733,-3.331358 3.6527793,-3.651832 0.412042,-0.542276 0.692659,-1.27355 0.741465,-1.932213 0.06674,-0.900425 -0.129196,-1.685608 -0.603315,-2.417657 -0.218629,-0.337582 -0.684359,-0.81669 -1.001025,-1.029801 -0.248652,-0.167344 -0.727385,-0.41444 -0.802951,-0.41444 -0.113116,0 -0.179223,0.721378 -0.09483,1.03477 0.06958,0.258333 0.22364,0.520276 0.494069,0.839953 0.459072,0.542666 0.641355,1.007108 0.64257,1.637216 8.02e-4,0.416243 -0.06919,0.72324 -0.249808,1.095829 -0.140442,0.289696 -0.157327,0.307894 -1.881547,2.03163 -1.5711689,1.570706 -1.7631868,1.751263 -1.9805529,1.862298 -0.4161168,0.212545 -0.7012653,0.282485 -1.1519444,0.282485 -0.6881919,0 -1.1943885,-0.210868 -1.6859073,-0.702417 C 5.7196551,18.25975 5.5562111,17.988704 5.420836,17.55101 c -0.113258,-0.366178 -0.113258,-0.940511 0,-1.30668 0.1861582,-0.601872 0.1664006,-0.577964 2.0326758,-2.458628 l 1.706176,-1.719316 -0.040924,-0.223489 c -0.022432,-0.122939 -0.042563,-0.459682 -0.044593,-0.748339 l -0.00385,-0.524821 -0.2332417,0.117447 c -0.1282859,0.06461 -0.356517,0.209987 -0.5071949,0.323073 -0.3170354,0.237913 -3.4424169,3.364701 -3.6506992,3.652318 -0.5913512,0.816593 -0.8462642,1.88279 -0.6791994,2.840814 0.281231,1.612662 1.4902602,2.831494 3.0964604,3.121547 0.3652804,0.066 0.8671217,0.0668 1.2385105,0.002 z M 8.0160782,18.583733 c 0.1103816,-0.01803 0.3115718,-0.08269 0.4470215,-0.143611 0.2348519,-0.105581 0.3178027,-0.181936 1.7850883,-1.642387 0.846334,-0.842414 1.538786,-1.540345 1.538786,-1.550949 0,-0.01048 -0.104465,-0.07053 -0.232118,-0.133129 -0.828335,-0.406221 -1.550059,-1.112932 -1.9896783,-1.948335 -0.089157,-0.169441 -0.1679399,-0.315107 -0.1750513,-0.323744 -0.007,-0.0088 -0.6939158,0.664482 -1.5262269,1.495806 -1.4477039,1.445981 -1.5192521,1.523439 -1.6507985,1.787092 -0.2602156,0.521576 -0.260182,1.023189 1.367e-4,1.548543 0.3311197,0.668189 1.0539477,1.033327 1.8028241,0.910685 z M 12.264111,14.44473 c 0.05307,-0.237242 0.05479,-0.660541 0.0034,-0.851312 -0.06957,-0.258333 -0.22364,-0.520272 -0.494069,-0.839949 -0.459072,-0.542666 -0.641355,-1.007108 -0.64257,-1.63722 -8.06e-4,-0.417668 0.0695,-0.72454 0.251037,-1.095833 0.133644,-0.2733863 0.193479,-0.3434103 0.924681,-1.0823863 0.771588,-0.779807 0.783653,-0.790105 0.925488,-0.790105 0.247146,0 0.41376,0.258743 0.304913,0.473509 -0.02105,0.0413 -0.302599,0.341468 -0.625934,0.667025 -0.323342,0.325547 -0.580862,0.597683 -0.572294,0.604736 0.0084,0.0071 0.154211,0.08579 0.323656,0.1749343 0.835401,0.439618 1.542131,1.16134 1.948341,1.989674 0.0626,0.127636 0.122504,0.232126 0.13312,0.232126 0.01048,0 0.708534,-0.692458 1.550952,-1.538793 1.46735,-1.4741833 1.536372,-1.5492723 1.643933,-1.7884633 0.452332,-1.005877 -0.0825,-2.123374 -1.147191,-2.396985 -0.415045,-0.106661 -0.804359,-0.0485 -1.263323,0.188735 -0.329577,0.170363 -0.411295,0.172598 -0.568314,0.01556 -0.106705,-0.1067 -0.118827,-0.136202 -0.101103,-0.245636 0.02629,-0.162707 0.118579,-0.256027 0.396494,-0.401442 0.395944,-0.207169 0.689056,-0.27892 1.13941,-0.27892 0.688192,0 1.194388,0.210905 1.685907,0.702421 0.323832,0.32384 0.487276,0.594871 0.622655,1.032566 0.113258,0.366174 0.113258,0.940508 0,1.306683 -0.186158,0.601872 -0.1664,0.577964 -2.032676,2.4586233 l -1.706176,1.719316 0.04092,0.223531 c 0.02243,0.12294 0.04256,0.459683 0.04459,0.748335 l 0.0038,0.524826 0.233242,-0.117447 c 0.128286,-0.06461 0.356521,-0.209987 0.507198,-0.323074 0.317039,-0.237954 3.442423,-3.364704 3.650705,-3.652321 0.591342,-0.8165903 0.846255,-1.8827853 0.67919,-2.8408083 -0.283545,-1.625926 -1.497641,-2.8400285 -3.123568,-3.1235661 -0.958021,-0.1670648 -2.024219,0.087848 -2.840815,0.6792001 -0.279515,0.202425 -3.40927,3.331357 -3.652776,3.651829 -0.412039,0.542279 -0.6926593,1.2735493 -0.7414683,1.9322163 -0.06684,0.902215 0.13151,1.695344 0.6047013,2.417657 0.223711,0.341523 0.688336,0.8203 0.998676,1.029143 0.255414,0.171872 0.721051,0.41314 0.799584,0.414272 0.03824,5.57e-4 0.06705,-0.0543 0.09578,-0.182649 z m 1.803654,-6.6407793 c -0.219401,-0.09544 -0.263121,-0.380921 -0.08299,-0.54187 0.148149,-0.132362 0.317208,-0.130572 0.452564,0.0048 0.180552,0.180552 0.115321,0.462222 -0.128529,0.554933 -0.105585,0.04013 -0.108176,0.03996 -0.241054,-0.01782 z m 0.521684,12.6730973 c -0.03782,-0.01593 -0.09974,-0.06386 -0.137532,-0.105916 -0.06593,-0.07325 -0.06877,-0.124827 -0.06877,-1.241185 v -1.164741 l 0.09455,-0.09459 c 0.07164,-0.07166 0.1279,-0.09455 0.232118,-0.09455 0.104184,0 0.16048,0.02264 0.232118,0.09455 l 0.09455,0.09459 v 1.167567 1.167576 l -0.08597,0.08591 c -0.09549,0.09543 -0.255938,0.135771 -0.361058,0.09074 z m 3.215122,-1.747649 c -0.131754,-0.02264 -1.670921,-1.577134 -1.694749,-1.711353 -0.02734,-0.154011 0.05657,-0.320977 0.189098,-0.376367 0.221291,-0.09246 0.268446,-0.05992 1.083191,0.747924 0.420139,0.416578 0.788648,0.8096 0.818908,0.873367 0.12086,0.254727 -0.102503,0.517509 -0.396468,0.466429 z M 17.477904,15.52481 c -0.219329,-0.092 -0.277097,-0.377248 -0.110172,-0.54416 l 0.09455,-0.09455 h 1.167572 1.167572 l 0.09455,0.09455 c 0.131964,0.131955 0.131964,0.332214 4.3e-5,0.464215 l -0.09452,0.09455 -1.125412,0.0071 c -0.618981,0.0038 -1.156362,-0.0059 -1.194189,-0.0218 z M 4.4454769,10.194922 C 4.2261435,10.102922 4.1683802,9.8176737 4.3353007,9.6507617 l 0.094549,-0.09455 h 1.1675727 1.1675723 l 0.094549,0.09455 c 0.1319632,0.131955 0.1319632,0.332214 4.19e-5,0.4642153 l -0.094515,0.09455 -1.1254122,0.0071 c -0.6189766,0.0039 -1.1563618,-0.0059 -1.1941851,-0.0218 z M 7.591829,8.5164877 c -0.08327,-0.01545 -1.4683835,-1.352825 -1.6225144,-1.566593 -0.083373,-0.115622 -0.089716,-0.304157 -0.014,-0.419543 0.060254,-0.09195 0.2287887,-0.150722 0.3643118,-0.127032 0.1320009,0.0231 1.6709662,1.574674 1.6947524,1.708649 0.028051,0.157927 -0.0564,0.320914 -0.1965946,0.379495 -0.066279,0.02767 -0.1248518,0.04823 -0.1301769,0.04566 -0.00524,-0.0026 -0.048379,-0.01187 -0.095668,-0.02063 z m 1.6677364,-1.175025 c -0.037821,-0.01619 -0.099736,-0.06385 -0.1375358,-0.105891 -0.065931,-0.07326 -0.068766,-0.124844 -0.068766,-1.241185 V 4.8296413 l 0.094549,-0.094565 c 0.1319632,-0.1319757 0.3322393,-0.1319757 0.4642151,0 l 0.09455,0.094565 v 1.1675734 1.167572 l -0.08597,0.08592 c -0.09549,0.09545 -0.2559386,0.135774 -0.361058,0.09076 z"
         id="path1" /><text
         xml:space="preserve"
         style="font-size:1.96911px;line-height:0;font-family:Poppins;-inkscape-font-specification:Poppins;fill:#1d3557;stroke-width:0.092302"
         x="3.1132588"
         y="23.446079"
         id="text1"><tspan
           sodipodi:role="line"
           id="tspan1"
           style="stroke-width:0.092302"
           x="3.1132588"
           y="23.446079">Linkspot by KRYON</tspan></text></g></g></svg>
