<?xml version="1.0" standalone="no"?>
<!DOCTYPE svg PUBLIC "-//W3C//DTD SVG 20010904//EN"
 "http://www.w3.org/TR/2001/REC-SVG-20010904/DTD/svg10.dtd">
<svg version="1.0" xmlns="http://www.w3.org/2000/svg"
 width="512.000000pt" height="512.000000pt" viewBox="0 0 512.000000 512.000000"
 preserveAspectRatio="xMidYMid meet">

<g transform="translate(0.000000,512.000000) scale(0.100000,-0.100000)"
fill="#000000" stroke="none">
<path d="M545 5104 c-38 -8 -113 -35 -165 -61 -78 -38 -109 -60 -176 -127 -67
-67 -89 -98 -127 -176 -75 -154 -77 -172 -77 -767 0 -316 4 -532 10 -554 34
-122 166 -186 303 -148 47 13 102 60 130 113 22 40 22 49 27 581 l5 540 25 43
c15 27 42 54 70 70 l45 27 535 5 c515 5 537 6 580 26 188 87 169 379 -29 434
-22 6 -238 10 -561 9 -416 0 -540 -4 -595 -15z"/>
<path d="M3420 5111 c-103 -32 -160 -110 -160 -220 0 -98 42 -170 124 -214 40
-22 49 -22 581 -27 l540 -5 43 -25 c27 -15 54 -42 70 -70 l27 -45 5 -540 c5
-532 5 -541 27 -581 98 -182 379 -160 433 35 6 22 10 238 10 554 0 594 -2 613
-76 765 -94 192 -263 322 -476 366 -65 14 -159 16 -600 15 -288 0 -534 -4
-548 -8z"/>
<path d="M1074 4174 c-23 -8 -58 -31 -77 -51 -67 -66 -67 -69 -67 -625 0 -327
4 -514 11 -542 14 -55 59 -110 112 -139 42 -22 43 -22 577 -22 529 0 535 0
575 22 46 24 75 54 101 103 18 33 19 67 19 570 0 534 0 535 -22 577 -29 53
-84 98 -139 112 -28 7 -214 11 -546 10 -414 0 -510 -3 -544 -15z m786 -684 l0
-230 -230 0 -230 0 0 230 0 230 230 0 230 0 0 -230z"/>
<path d="M2941 4175 c-51 -16 -94 -54 -124 -110 -22 -40 -22 -46 -22 -575 0
-529 0 -535 22 -575 24 -46 54 -75 103 -101 33 -18 67 -19 570 -19 534 0 535
0 577 22 53 29 98 84 112 139 7 28 11 214 11 537 0 554 -1 561 -67 629 -66 67
-72 68 -637 67 -394 0 -510 -3 -545 -14z m779 -685 l0 -230 -230 0 -230 0 0
230 0 230 230 0 230 0 0 -230z"/>
<path d="M1105 2321 c-43 -11 -76 -29 -113 -64 -60 -58 -62 -75 -62 -633 0
-560 0 -557 68 -627 64 -66 73 -67 629 -67 323 0 509 4 537 11 55 14 110 59
139 112 22 42 22 43 22 577 0 503 -1 537 -19 570 -26 49 -55 79 -101 103 -39
22 -48 22 -555 24 -283 1 -528 -2 -545 -6z m755 -691 l0 -230 -230 0 -230 0 0
230 0 230 230 0 230 0 0 -230z"/>
<path d="M2965 2321 c-70 -18 -117 -56 -151 -121 -15 -28 -19 -65 -22 -186 -5
-203 5 -254 67 -315 54 -55 109 -74 193 -66 103 9 174 69 198 168 7 29 10 107
8 205 -3 168 -10 196 -62 252 -47 52 -158 82 -231 63z"/>
<path d="M3665 2321 c-105 -27 -175 -117 -175 -226 0 -100 66 -194 154 -220
61 -18 316 -20 383 -3 32 8 61 25 94 57 39 38 49 56 60 105 25 113 -17 212
-112 266 -41 24 -53 25 -209 27 -91 1 -178 -2 -195 -6z"/>
<path d="M119 1833 c-57 -30 -92 -71 -109 -132 -6 -22 -10 -238 -10 -554 0
-595 2 -613 77 -767 38 -78 60 -109 127 -176 67 -67 98 -89 176 -127 154 -75
172 -77 767 -77 316 0 532 4 554 10 122 34 186 166 148 303 -13 47 -60 102
-113 130 -40 22 -49 22 -581 27 l-540 5 -43 25 c-27 15 -54 42 -70 70 l-27 45
-5 540 c-5 532 -5 541 -27 581 -62 117 -202 158 -324 97z"/>
<path d="M4796 1845 c-47 -17 -91 -57 -119 -110 -22 -39 -22 -51 -27 -580 l-5
-540 -27 -45 c-16 -28 -43 -55 -70 -70 l-43 -25 -540 -5 c-532 -5 -541 -5
-581 -27 -182 -98 -160 -379 35 -433 22 -6 238 -10 554 -10 434 0 530 3 595
16 213 44 382 174 476 366 74 152 76 171 76 765 0 316 -4 532 -10 554 -17 61
-52 102 -109 132 -62 31 -139 36 -205 12z"/>
<path d="M3188 1386 c-104 -28 -158 -104 -158 -219 0 -106 33 -167 115 -210
39 -21 53 -22 438 -25 463 -3 477 -1 545 72 102 111 73 291 -59 366 l-44 25
-395 2 c-298 2 -407 -1 -442 -11z"/>
</g>
</svg>
