<?xml version="1.0" encoding="UTF-8" standalone="no"?>
<svg
   width="100"
   height="100"
   viewBox="0 0 100 100"
   fill="none"
   version="1.1"
   id="svg13"
   xmlns="http://www.w3.org/2000/svg"
   xmlns:svg="http://www.w3.org/2000/svg">
  <defs
     id="defs13" />
  <g
     id="g14"
     transform="scale(1.1904762)">
    <path
       d="M 0,45.6 V 38.4 C 0,20.2981 0,11.2471 5.62355,5.62355 11.2471,0 20.2981,0 38.4,0 h 7.2 C 63.7019,0 72.7529,0 78.3765,5.62355 84,11.2471 84,20.2981 84,38.4 v 7.2 C 84,63.7019 84,72.7529 78.3765,78.3765 72.7529,84 63.7019,84 45.6,84 H 38.4 C 20.2981,84 11.2471,84 5.62355,78.3765 0,72.7529 0,63.7019 0,45.6 Z"
       fill="#ffffff"
       id="path1" />
    <g
       id="g13">
      <path
         d="m 51.001,30 c 0.3775,0 0.7397,-0.1737 0.9352,-0.4966 C 52.4845,28.5979 52.8,27.5362 52.8,26.4 c 0,-3.3141 -2.6862,-6 -6,-6 -3.3138,0 -6,2.6859 -6,6 0,1.1362 0.3155,2.1979 0.8638,3.1034 C 41.8593,29.8263 42.2215,30 42.599,30 Z"
         fill="#e50027"
         id="path2" />
      <path
         d="m 45.4078,18.7405 c 0.0746,0.3163 -0.145,0.6164 -0.459,0.6997 C 41.8694,20.2572 39.6,23.0636 39.6,26.4 c 0,0.1702 0.0059,0.339 0.0175,0.5063 0.0225,0.3241 -0.1907,0.6284 -0.5141,0.6598 C 38.8719,27.5885 38.6373,27.6 38.4,27.6 c -3.9764,0 -7.2,-3.2235 -7.2,-7.2 0,-3.9764 3.2236,-7.2 7.2,-7.2 3.4053,0 6.2585,2.3641 7.0078,5.5405 z"
         fill="#e50027"
         id="path3" />
      <path
         d="m 28.0817,36.5647 c 0.3832,-0.2466 0.5748,-0.3699 0.9062,-0.4673 C 29.3193,36 29.6268,36 30.2419,36 H 38.1 c 0.1657,0 0.3,-0.1343 0.3,-0.3 0,-0.1657 -0.1343,-0.3 -0.3,-0.3 h -6.8337 c -0.2352,0 -0.3528,0 -0.4777,-0.0612 C 30.6637,35.2776 30.61,35.2083 30.5024,35.0696 30.1875,34.6635 30,34.1536 30,33.6 c 0,-1.3255 1.0745,-2.4 2.4,-2.4 h 19.2 c 1.3255,0 2.4,1.0745 2.4,2.4 0,0.7237 -0.3203,1.3725 -0.8268,1.8125 1.3318,0.3226 2.4011,0.815 3.317,1.5666 0.4861,0.3989 0.9318,0.8446 1.3307,1.3307 C 60,40.9651 60,44.91 60,52.8 60,60.69 60,64.6349 57.8209,67.2902 57.422,67.7763 56.9763,68.222 56.4902,68.6209 53.8349,70.8 49.89,70.8 42,70.8 34.1101,70.8 30.1651,70.8 27.5098,68.6209 27.0237,68.222 26.578,67.7763 26.1791,67.2902 24,64.6349 24,60.69 24,52.8 c 0,-7.89 0,-11.8349 2.1791,-14.4902 0.3989,-0.4861 0.8446,-0.9318 1.3307,-1.3307 0.185,-0.1518 0.3747,-0.2876 0.5719,-0.4144 z"
         fill="#e50027"
         id="path4" />
      <path
         d="m 42.483,44.8599 c -0.2544,0.232 -0.6548,0.2321 -0.909,-1e-4 -5.7369,-5.2398 -12.7427,3.0733 -7.0831,9.0417 l 5.8669,5.6808 c 0.9312,0.9015 2.4099,0.9009 3.3403,-0.0014 l 5.8421,-5.6656 C 55.1438,48.0027 48.1435,39.698 42.483,44.8599 Z"
         fill="#ffffff"
         id="path5" />
    </g>
  </g>
</svg>
